<svg width="29" height="28" viewBox="0 0 29 28" fill="none" xmlns="http://www.w3.org/2000/svg">
<path id="Cart" d="M10.4722 23.2368C9.99425 23.2368 9.52701 23.3619 9.12959 23.5961C8.73218 23.8303 8.42243 24.1632 8.23951 24.5527C8.0566 24.9422 8.00874 25.3708 8.10199 25.7843C8.19524 26.1978 8.4254 26.5776 8.76338 26.8757C9.10136 27.1738 9.53197 27.3768 10.0008 27.459C10.4695 27.5413 10.9555 27.4991 11.397 27.3377C11.8386 27.1764 12.2161 26.9032 12.4816 26.5527C12.7472 26.2021 12.8889 25.79 12.8889 25.3684C12.8889 24.8031 12.6343 24.2609 12.1811 23.8612C11.7279 23.4614 11.1132 23.2368 10.4722 23.2368ZM27.3889 18.9737H8.05556C7.62826 18.9737 7.21847 18.824 6.91633 18.5575C6.61419 18.291 6.44444 17.9295 6.44444 17.5526C6.44444 17.1757 6.61419 16.8143 6.91633 16.5478C7.21847 16.2813 7.62826 16.1316 8.05556 16.1316H21.7358C22.7854 16.1286 23.8055 15.8257 24.6434 15.2683C25.4813 14.7108 26.0919 13.9289 26.3836 13.0397L28.9379 5.15381C29.0064 4.94231 29.0183 4.71968 28.9727 4.50342C28.9271 4.28717 28.8252 4.08321 28.6751 3.90759C28.5249 3.73197 28.3306 3.58949 28.1074 3.49136C27.8842 3.39323 27.6383 3.34214 27.3889 3.34211H7.63517C7.30165 2.51414 6.68683 1.79701 5.87447 1.28842C5.06212 0.779831 4.09175 0.50452 3.09557 0.5H1.61111C1.18382 0.5 0.774025 0.649718 0.471883 0.916217C0.169742 1.18272 0 1.54417 0 1.92105C0 2.29794 0.169742 2.65939 0.471883 2.92589C0.774025 3.19239 1.18382 3.34211 1.61111 3.34211H3.09557C3.44532 3.34318 3.78526 3.44416 4.06449 3.62991C4.34372 3.81566 4.54723 4.0762 4.64453 4.37251L4.89509 5.14661L4.89547 5.15381L7.53871 13.3138C6.30873 13.4305 5.17629 13.9587 4.37459 14.7897C3.57289 15.6207 3.16296 16.6912 3.22919 17.7808C3.29543 18.8704 3.8328 19.8961 4.73065 20.6467C5.62849 21.3974 6.81847 21.8158 8.05556 21.8158H27.3889C27.8162 21.8158 28.226 21.6661 28.5281 21.3996C28.8303 21.1331 29 20.7716 29 20.3947C29 20.0178 28.8303 19.6564 28.5281 19.3899C28.226 19.1234 27.8162 18.9737 27.3889 18.9737ZM25.2531 6.18421L23.2856 12.2584C23.1884 12.5549 22.9848 12.8157 22.7054 13.0016C22.426 13.1875 22.0858 13.2885 21.7358 13.2895H10.8821L10.4713 12.0216L8.58145 6.18421H25.2531ZM23.3611 23.2368C22.8831 23.2368 22.4159 23.3619 22.0185 23.5961C21.6211 23.8303 21.3113 24.1632 21.1284 24.5527C20.9455 24.9422 20.8976 25.3708 20.9909 25.7843C21.0841 26.1978 21.3143 26.5776 21.6523 26.8757C21.9902 27.1738 22.4209 27.3768 22.8896 27.459C23.3584 27.5413 23.8443 27.4991 24.2859 27.3377C24.7275 27.1764 25.1049 26.9032 25.3705 26.5527C25.636 26.2021 25.7778 25.79 25.7778 25.3684C25.7778 24.8031 25.5232 24.2609 25.07 23.8612C24.6167 23.4614 24.0021 23.2368 23.3611 23.2368Z" fill="#364F2A"/>
</svg>
