<svg width="30" height="30" viewBox="0 0 30 30" fill="none" xmlns="http://www.w3.org/2000/svg">
<path d="M6.25 22.5004H11.55C11.7145 22.5014 11.8776 22.4698 12.0299 22.4076C12.1822 22.3454 12.3207 22.2538 12.4375 22.1379L21.0875 13.4754L24.6375 10.0004C24.7547 9.88421 24.8477 9.74596 24.9111 9.59363C24.9746 9.44131 25.0072 9.27793 25.0072 9.11291C25.0072 8.9479 24.9746 8.78452 24.9111 8.63219C24.8477 8.47987 24.7547 8.34162 24.6375 8.22541L19.3375 2.86291C19.2213 2.74575 19.083 2.65276 18.9307 2.5893C18.7784 2.52584 18.615 2.49316 18.45 2.49316C18.285 2.49316 18.1216 2.52584 17.9693 2.5893C17.817 2.65276 17.6787 2.74575 17.5625 2.86291L14.0375 6.40041L5.3625 15.0629C5.24665 15.1797 5.15499 15.3182 5.09279 15.4705C5.03058 15.6228 4.99905 15.7859 5 15.9504V21.2504C5 21.5819 5.1317 21.8999 5.36612 22.1343C5.60054 22.3687 5.91848 22.5004 6.25 22.5004ZM18.45 5.51291L21.9875 9.05041L20.2125 10.8254L16.675 7.28791L18.45 5.51291ZM7.5 16.4629L14.9125 9.05041L18.45 12.5879L11.0375 20.0004H7.5V16.4629ZM26.25 25.0004H3.75C3.41848 25.0004 3.10054 25.1321 2.86612 25.3665C2.6317 25.6009 2.5 25.9189 2.5 26.2504C2.5 26.5819 2.6317 26.8999 2.86612 27.1343C3.10054 27.3687 3.41848 27.5004 3.75 27.5004H26.25C26.5815 27.5004 26.8995 27.3687 27.1339 27.1343C27.3683 26.8999 27.5 26.5819 27.5 26.2504C27.5 25.9189 27.3683 25.6009 27.1339 25.3665C26.8995 25.1321 26.5815 25.0004 26.25 25.0004Z" fill="black"/>
</svg>
