<svg width="40" height="40" viewBox="0 0 40 40" fill="none" xmlns="http://www.w3.org/2000/svg">
<path d="M31.8561 9.36029C30.3187 7.74253 28.2807 6.75514 26.1102 6.57648C23.9398 6.39782 21.78 7.03967 20.0211 8.38609C18.1757 6.94556 15.8788 6.29235 13.5929 6.55801C11.307 6.82367 9.20197 7.98847 7.70161 9.81784C6.20125 11.6472 5.41706 14.0053 5.50696 16.4172C5.59685 18.829 6.55415 21.1156 8.18607 22.8164L17.1929 32.2844C17.9471 33.0634 18.9629 33.5 20.0211 33.5C21.0793 33.5 22.0951 33.0634 22.8493 32.2844L31.8561 22.8164C33.5495 21.0282 34.5 18.6095 34.5 16.0883C34.5 13.5672 33.5495 11.1484 31.8561 9.36029ZM29.8111 20.7158L20.8043 30.1685C20.7018 30.2771 20.5798 30.3634 20.4454 30.4222C20.3109 30.481 20.1667 30.5113 20.0211 30.5113C19.8754 30.5113 19.7312 30.481 19.5968 30.4222C19.4624 30.3634 19.3404 30.2771 19.2379 30.1685L10.2311 20.6701C9.09365 19.4498 8.45673 17.8106 8.45673 16.1036C8.45673 14.3965 9.09365 12.7573 10.2311 11.537C11.3902 10.336 12.9534 9.66255 14.5822 9.66255C16.211 9.66255 17.7742 10.336 18.9333 11.537C19.0681 11.6797 19.2285 11.7929 19.4053 11.8702C19.582 11.9475 19.7716 11.9873 19.9631 11.9873C20.1545 11.9873 20.3441 11.9475 20.5208 11.8702C20.6976 11.7929 20.858 11.6797 20.9928 11.537C22.1519 10.336 23.7151 9.66255 25.3439 9.66255C26.9727 9.66255 28.536 10.336 29.695 11.537C30.8481 12.7413 31.506 14.3716 31.5276 16.0787C31.5493 17.7858 30.9331 19.434 29.8111 20.6701V20.7158Z" fill="#364F2A"/>
<mask id="path-2-inside-1_143_268" fill="white">
<path d="M12 9L8 12.5V15V19L12 23.5L17.5 29.5L20 31L24.5 28L29 22.5L32 18L31.5 12.5L29 9.5H24L20 11.5L17.5 9.5L12 9Z"/>
</mask>
<path d="M8 12.5L-9.12112 -7.06699L-18 0.702026V12.5H8ZM12 9L14.3539 -16.8932L3.26133 -17.9016L-5.12112 -10.567L12 9ZM17.5 9.5L33.7421 -10.8026L27.6384 -15.6855L19.8539 -16.3932L17.5 9.5ZM20 11.5L3.75793 31.8026L16.7482 42.1948L31.6276 34.7551L20 11.5ZM24 9.5V-16.5H17.8622L12.3724 -13.7551L24 9.5ZM29 9.5L48.9738 -7.14479L41.1777 -16.5H29V9.5ZM31.5 12.5L57.3932 10.1461L56.6598 2.07847L51.4738 -4.14479L31.5 12.5ZM32 18L53.6333 32.4222L58.7241 24.786L57.8932 15.6461L32 18ZM29 22.5L49.1229 38.9642L49.928 37.9801L50.6333 36.9222L29 22.5ZM24.5 28L38.9222 49.6333L42.1593 47.4753L44.6229 44.4642L24.5 28ZM20 31L6.62311 53.2948L20.732 61.7601L34.4222 52.6333L20 31ZM17.5 29.5L-1.66601 47.0688L0.885391 49.8522L4.12311 51.7948L17.5 29.5ZM12 23.5L-7.43264 40.7735L-7.30046 40.9222L-7.16601 41.0688L12 23.5ZM8 19H-18V28.8852L-11.4326 36.2735L8 19ZM8 12.5L25.1211 32.067L29.1211 28.567L12 9L-5.12112 -10.567L-9.12112 -7.06699L8 12.5ZM12 9L9.64607 34.8932L15.1461 35.3932L17.5 9.5L19.8539 -16.3932L14.3539 -16.8932L12 9ZM17.5 9.5L1.25793 29.8026L3.75793 31.8026L20 11.5L36.2421 -8.80259L33.7421 -10.8026L17.5 9.5ZM20 11.5L31.6276 34.7551L35.6276 32.7551L24 9.5L12.3724 -13.7551L8.37245 -11.7551L20 11.5ZM24 9.5V35.5H29V9.5V-16.5H24V9.5ZM29 9.5L9.02625 26.1448L11.5262 29.1448L31.5 12.5L51.4738 -4.14479L48.9738 -7.14479L29 9.5ZM31.5 12.5L5.60678 14.8539L6.10678 20.3539L32 18L57.8932 15.6461L57.3932 10.1461L31.5 12.5ZM32 18L10.3667 3.5778L7.36669 8.07779L29 22.5L50.6333 36.9222L53.6333 32.4222L32 18ZM29 22.5L8.87711 6.03582L4.37711 11.5358L24.5 28L44.6229 44.4642L49.1229 38.9642L29 22.5ZM24.5 28L10.0778 6.36669L5.57779 9.36669L20 31L34.4222 52.6333L38.9222 49.6333L24.5 28ZM20 31L33.3769 8.70518L30.8769 7.20518L17.5 29.5L4.12311 51.7948L6.62311 53.2948L20 31ZM17.5 29.5L36.666 11.9312L31.166 5.93116L12 23.5L-7.16601 41.0688L-1.66601 47.0688L17.5 29.5ZM12 23.5L31.4326 6.22654L27.4326 1.72654L8 19L-11.4326 36.2735L-7.43264 40.7735L12 23.5ZM8 19H34V15H8H-18V19H8ZM8 15H34V12.5H8H-18V15H8Z" fill="#364F2A" mask="url(#path-2-inside-1_143_268)"/>
</svg>
