<svg width="34" height="25" viewBox="0 0 34 25" fill="none" xmlns="http://www.w3.org/2000/svg">
<g clip-path="url(#clip0_53_7609)">
<path d="M0 0H34V8.33333H0V0Z" fill="#FF9933"/>
<path d="M0 8.33301H34V16.6663H0V8.33301Z" fill="white"/>
<path d="M0 16.667H34V25.0003H0V16.667Z" fill="#128807"/>
<path d="M16.9996 15.8337C18.8774 15.8337 20.3996 14.3413 20.3996 12.5003C20.3996 10.6594 18.8774 9.16699 16.9996 9.16699C15.1218 9.16699 13.5996 10.6594 13.5996 12.5003C13.5996 14.3413 15.1218 15.8337 16.9996 15.8337Z" fill="#000088"/>
<path d="M16.9999 15.4173C18.6429 15.4173 19.9749 14.1115 19.9749 12.5007C19.9749 10.8898 18.6429 9.58398 16.9999 9.58398C15.3569 9.58398 14.0249 10.8898 14.0249 12.5007C14.0249 14.1115 15.3569 15.4173 16.9999 15.4173Z" fill="white"/>
<path d="M16.9998 13.0837C17.3284 13.0837 17.5948 12.8225 17.5948 12.5003C17.5948 12.1782 17.3284 11.917 16.9998 11.917C16.6712 11.917 16.4048 12.1782 16.4048 12.5003C16.4048 12.8225 16.6712 13.0837 16.9998 13.0837Z" fill="#000088"/>
<path d="M19.9294 13.026C20.0109 13.0365 20.0856 12.9803 20.0963 12.9004C20.1071 12.8206 20.0497 12.7473 19.9683 12.7368C19.8868 12.7263 19.8121 12.7825 19.8014 12.8624C19.7907 12.9422 19.848 13.0155 19.9294 13.026Z" fill="#000088"/>
<path d="M16.9995 15.4173L17.1015 13.6673L16.9995 12.834L16.8975 13.6673L16.9995 15.4173Z" fill="#000088"/>
<path d="M19.6906 13.7525C19.7662 13.7831 19.8532 13.7473 19.8849 13.6726C19.9166 13.598 19.881 13.5126 19.8054 13.4821C19.7298 13.4515 19.6428 13.4873 19.611 13.562C19.5793 13.6366 19.6149 13.7219 19.6906 13.7525Z" fill="#000088"/>
<path d="M16.2281 15.3185L16.789 13.653L16.9127 12.8223L16.5946 13.6021L16.2281 15.3185Z" fill="#000088"/>
<path d="M19.2684 14.3929C19.3333 14.4417 19.4266 14.4292 19.4769 14.365C19.5272 14.3008 19.5154 14.2093 19.4505 14.1605C19.3856 14.1118 19.2922 14.1243 19.2419 14.1885C19.1916 14.2526 19.2035 14.3442 19.2684 14.3929Z" fill="#000088"/>
<path d="M15.5109 15.028L16.492 13.5612L16.8301 12.7897L16.3171 13.4623L15.5109 15.028Z" fill="#000088"/>
<path d="M18.692 14.904C18.7418 14.9677 18.8352 14.9794 18.9006 14.9301C18.966 14.8808 18.9787 14.7893 18.929 14.7256C18.8792 14.662 18.7858 14.6503 18.7204 14.6996C18.655 14.7489 18.6423 14.8404 18.692 14.904Z" fill="#000088"/>
<path d="M14.8957 14.564L16.2302 13.3959L16.76 12.7362L16.0871 13.2556L14.8957 14.564Z" fill="#000088"/>
<path d="M18.001 15.2507C18.0328 15.3254 18.1198 15.3612 18.1954 15.3307C18.271 15.3002 18.3065 15.2149 18.2748 15.1402C18.243 15.0655 18.156 15.0296 18.0804 15.0601C18.0048 15.0907 17.9693 15.176 18.001 15.2507Z" fill="#000088"/>
<path d="M14.4235 13.9575L16.0202 13.1711L16.7044 12.6676L15.9171 12.9962L14.4235 13.9575Z" fill="#000088"/>
<path d="M17.2408 15.4106C17.2518 15.4908 17.3266 15.5475 17.4077 15.5373C17.4888 15.5271 17.5457 15.4538 17.5346 15.3737C17.5236 15.2935 17.4489 15.2368 17.3677 15.247C17.2866 15.2572 17.2298 15.3305 17.2408 15.4106Z" fill="#000088"/>
<path d="M14.1261 13.2541L15.8765 12.9009L16.6704 12.5881L15.8228 12.7051L14.1261 13.2541Z" fill="#000088"/>
<path d="M16.4634 15.3734C16.453 15.453 16.5108 15.5262 16.5926 15.537C16.6744 15.5479 16.7491 15.4921 16.7595 15.4126C16.7699 15.333 16.712 15.2598 16.6303 15.249C16.5485 15.2381 16.4738 15.2939 16.4634 15.3734Z" fill="#000088"/>
<path d="M14.025 12.4963L15.8098 12.5981L16.6591 12.5068L15.809 12.4087L14.025 12.4963Z" fill="#000088"/>
<path d="M15.7232 15.1396C15.6918 15.2139 15.7281 15.2992 15.8041 15.3301C15.8802 15.3611 15.9672 15.326 15.9985 15.2517C16.0298 15.1774 15.9935 15.0921 15.9175 15.0611C15.8415 15.0302 15.7545 15.0653 15.7232 15.1396Z" fill="#000088"/>
<path d="M14.1254 11.7454L15.8237 12.2952L16.6711 12.4153L15.8761 12.1032L14.1254 11.7454Z" fill="#000088"/>
<path d="M15.0709 14.7268C15.0206 14.791 15.0324 14.8825 15.0973 14.9313C15.1622 14.98 15.2556 14.9675 15.3059 14.9033C15.3562 14.8391 15.3444 14.7476 15.2795 14.6988C15.2146 14.6501 15.1212 14.6626 15.0709 14.7268Z" fill="#000088"/>
<path d="M14.4239 11.0437L15.9175 12.0049L16.7048 12.3336L16.0206 11.83L14.4239 11.0437Z" fill="#000088"/>
<path d="M14.5491 14.1607C14.4836 14.21 14.4708 14.3015 14.5206 14.3652C14.5703 14.4288 14.6637 14.4404 14.7291 14.391C14.7946 14.3417 14.8073 14.2502 14.7576 14.1866C14.7079 14.123 14.6145 14.1114 14.5491 14.1607Z" fill="#000088"/>
<path d="M14.8964 10.4393L16.0849 11.7472L16.7583 12.2647L16.2304 11.6045L14.8964 10.4393Z" fill="#000088"/>
<path d="M14.1944 13.4828C14.1183 13.5139 14.0819 13.5992 14.1131 13.6734C14.1444 13.7476 14.2314 13.7825 14.3075 13.7515C14.3836 13.7205 14.42 13.6352 14.3888 13.561C14.3576 13.4868 14.2706 13.4518 14.1944 13.4828Z" fill="#000088"/>
<path d="M15.5128 9.97506L16.3154 11.5405L16.829 12.2115L16.4934 11.4397L15.5128 9.97506Z" fill="#000088"/>
<path d="M14.0304 12.7369C13.9487 12.7476 13.891 12.8209 13.9015 12.9005C13.912 12.9801 13.9868 13.036 14.0684 13.0253C14.1501 13.0146 14.2078 12.9413 14.1973 12.8617C14.1868 12.782 14.1121 12.7262 14.0304 12.7369Z" fill="#000088"/>
<path d="M16.2302 9.68383L16.5915 11.4L16.9103 12.1785L16.7904 11.3476L16.2302 9.68383Z" fill="#000088"/>
<path d="M14.0698 11.9744C13.9887 11.9642 13.914 12.0209 13.9029 12.1011C13.8919 12.1813 13.9487 12.2545 14.0299 12.2647C14.111 12.2749 14.1857 12.2182 14.1967 12.1381C14.2078 12.0579 14.151 11.9847 14.0698 11.9744Z" fill="#000088"/>
<path d="M17.0048 9.58491L16.9009 11.3348L16.9938 12.1674L17.0939 11.3339L17.0048 9.58491Z" fill="#000088"/>
<path d="M14.3085 11.2494C14.2328 11.2189 14.1458 11.2546 14.1141 11.3293C14.0824 11.404 14.118 11.4893 14.1936 11.5199C14.2693 11.5504 14.3563 11.5147 14.388 11.44C14.4197 11.3653 14.3841 11.28 14.3085 11.2494Z" fill="#000088"/>
<path d="M17.7705 9.68248L17.2095 11.348L17.0859 12.1786L17.4039 11.3989L17.7705 9.68248Z" fill="#000088"/>
<path d="M14.7307 10.608C14.6658 10.5593 14.5724 10.5718 14.5221 10.636C14.4718 10.7001 14.4836 10.7917 14.5485 10.8404C14.6134 10.8892 14.7068 10.8767 14.7571 10.8125C14.8074 10.7483 14.7956 10.6568 14.7307 10.608Z" fill="#000088"/>
<path d="M18.4882 9.97395L17.507 11.4408L17.1689 12.2123L17.6819 11.5397L18.4882 9.97395Z" fill="#000088"/>
<path d="M15.3077 10.0969C15.2579 10.0332 15.1646 10.0216 15.0991 10.071C15.0336 10.1203 15.0209 10.2118 15.0706 10.2754C15.1203 10.3391 15.2137 10.3507 15.2792 10.3013C15.3446 10.252 15.3574 10.1605 15.3077 10.0969Z" fill="#000088"/>
<path d="M19.1046 10.4369L17.77 11.6051L17.2401 12.2649L17.913 11.7453L19.1046 10.4369Z" fill="#000088"/>
<path d="M15.9985 9.74932C15.9667 9.67461 15.8797 9.63878 15.8041 9.66929C15.7285 9.69981 15.693 9.78512 15.7247 9.85983C15.7565 9.93455 15.8435 9.97038 15.9191 9.93986C15.9947 9.90934 16.0302 9.82404 15.9985 9.74932Z" fill="#000088"/>
<path d="M19.576 11.0425L17.9793 11.8289L17.2951 12.3324L18.0824 12.0038L19.576 11.0425Z" fill="#000088"/>
<path d="M16.7587 9.58939C16.7477 9.50923 16.6729 9.45252 16.5918 9.46272C16.5107 9.47293 16.4538 9.54618 16.4649 9.62634C16.4759 9.7065 16.5506 9.76321 16.6318 9.75301C16.7129 9.7428 16.7697 9.66955 16.7587 9.58939Z" fill="#000088"/>
<path d="M19.8734 11.7459L18.123 12.0991L17.3291 12.4119L18.1767 12.2949L19.8734 11.7459Z" fill="#000088"/>
<path d="M17.5362 9.62779C17.5466 9.54828 17.4887 9.47503 17.4069 9.46417C17.325 9.45331 17.2503 9.50896 17.24 9.58846C17.2296 9.66797 17.2875 9.74123 17.3693 9.75208C17.4511 9.76294 17.5258 9.7073 17.5362 9.62779Z" fill="#000088"/>
<path d="M19.9744 12.5068L18.1895 12.4047L17.3403 12.4948L18.1905 12.5927L19.9744 12.5068Z" fill="#000088"/>
<path d="M18.2765 9.86166C18.3077 9.78743 18.2714 9.70213 18.1953 9.67112C18.1192 9.64012 18.0322 9.67516 18.0009 9.74939C17.9697 9.82362 18.006 9.90892 18.0821 9.93993C18.1582 9.97093 18.2452 9.93589 18.2765 9.86166Z" fill="#000088"/>
<path d="M19.8737 13.2563L18.1752 12.7065L17.3278 12.5859L18.123 12.8979L19.8737 13.2563Z" fill="#000088"/>
<path d="M18.9294 10.2765C18.9792 10.2127 18.9667 10.1212 18.9014 10.072C18.8361 10.0228 18.7427 10.0347 18.6928 10.0984C18.643 10.1622 18.6555 10.2537 18.7208 10.3029C18.7861 10.3521 18.8795 10.3403 18.9294 10.2765Z" fill="#000088"/>
<path d="M19.5764 13.9593L18.0809 12.9975L17.2939 12.6668L17.9795 13.1699L19.5764 13.9593Z" fill="#000088"/>
<path d="M19.4512 10.8416C19.5163 10.7928 19.5283 10.7012 19.4782 10.6372C19.428 10.5731 19.3346 10.5608 19.2696 10.6097C19.2046 10.6586 19.1925 10.7502 19.2427 10.8142C19.2928 10.8782 19.3862 10.8905 19.4512 10.8416Z" fill="#000088"/>
<path d="M19.1041 14.5636L17.9133 13.2553L17.2402 12.7363L17.7697 13.3961L19.1041 14.5636Z" fill="#000088"/>
<path d="M19.8052 11.5191C19.881 11.4884 19.9168 11.4031 19.8852 11.3285C19.8537 11.254 19.7666 11.2184 19.6909 11.2491C19.6151 11.2798 19.5793 11.3651 19.6109 11.4397C19.6425 11.5142 19.7295 11.5498 19.8052 11.5191Z" fill="#000088"/>
<path d="M18.4873 15.0268L17.6822 13.4612L17.169 12.7891L17.5063 13.5607L18.4873 15.0268Z" fill="#000088"/>
<path d="M19.9693 12.264C20.0506 12.2537 20.1077 12.1804 20.0968 12.1004C20.086 12.0204 20.0112 11.964 19.9299 11.9744C19.8486 11.9848 19.7915 12.058 19.8024 12.138C19.8133 12.218 19.888 12.2744 19.9693 12.264Z" fill="#000088"/>
<path d="M17.7704 15.3177L17.4055 13.6013L17.0872 12.822L17.2096 13.6527L17.7704 15.3177Z" fill="#000088"/>
</g>
<defs>
<clipPath id="clip0_53_7609">
<rect width="34" height="25" fill="white"/>
</clipPath>
</defs>
</svg>
