<svg width="23" height="23" viewBox="0 0 23 23" fill="none" xmlns="http://www.w3.org/2000/svg">
<g clip-path="url(#clip0_49_7584)">
<path d="M7.66729 11.5C7.66729 9.383 9.383 7.66636 11.5 7.66636C13.617 7.66636 15.3336 9.383 15.3336 11.5C15.3336 13.617 13.617 15.3336 11.5 15.3336C9.383 15.3336 7.66729 13.617 7.66729 11.5ZM5.59487 11.5C5.59487 14.7614 8.23857 17.4051 11.5 17.4051C14.7614 17.4051 17.4051 14.7614 17.4051 11.5C17.4051 8.23857 14.7614 5.59487 11.5 5.59487C8.23857 5.59487 5.59487 8.23857 5.59487 11.5ZM16.2588 5.36078C16.2588 6.1225 16.8766 6.74116 17.6392 6.74116C18.4009 6.74116 19.0196 6.1225 19.0196 5.36078C19.0196 4.59907 18.4019 3.98134 17.6392 3.98134C16.8766 3.98134 16.2588 4.59907 16.2588 5.36078ZM6.85355 20.8607C5.73235 20.8096 5.12298 20.6229 4.71797 20.465C4.18106 20.256 3.79834 20.007 3.39519 19.6048C2.99297 19.2026 2.74309 18.8199 2.53502 18.283C2.3771 17.8779 2.19039 17.2686 2.1393 16.1474C2.08356 14.9351 2.07242 14.571 2.07242 11.5C2.07242 8.429 2.08449 8.06579 2.1393 6.85263C2.19039 5.73142 2.37803 5.12298 2.53502 4.71704C2.74402 4.18013 2.99297 3.79742 3.39519 3.39426C3.79742 2.99204 4.18013 2.74216 4.71797 2.53409C5.12298 2.37617 5.73235 2.18946 6.85355 2.13837C8.06579 2.08263 8.42993 2.07149 11.5 2.07149C14.571 2.07149 14.9342 2.08356 16.1474 2.13837C17.2686 2.18946 17.877 2.3771 18.283 2.53409C18.8199 2.74216 19.2026 2.99204 19.6057 3.39426C20.008 3.79649 20.2569 4.18013 20.4659 4.71704C20.6238 5.12205 20.8105 5.73142 20.8616 6.85263C20.9174 8.06579 20.9285 8.429 20.9285 11.5C20.9285 14.5701 20.9174 14.9342 20.8616 16.1474C20.8105 17.2686 20.6229 17.8779 20.4659 18.283C20.2569 18.8199 20.008 19.2026 19.6057 19.6048C19.2035 20.007 18.8199 20.256 18.283 20.465C17.8779 20.6229 17.2686 20.8096 16.1474 20.8607C14.9351 20.9164 14.571 20.9276 11.5 20.9276C8.42993 20.9276 8.06579 20.9164 6.85355 20.8607ZM6.7588 0.0696688C5.53449 0.125404 4.69847 0.319548 3.96741 0.603796C3.21127 0.897334 2.57032 1.2912 1.93029 1.93029C1.2912 2.56939 0.897334 3.21034 0.603796 3.96741C0.319548 4.69847 0.125404 5.53449 0.0696688 6.7588C0.0130048 7.98498 0 8.37698 0 11.5C0 14.623 0.0130048 15.015 0.0696688 16.2412C0.125404 17.4655 0.319548 18.3015 0.603796 19.0326C0.897334 19.7887 1.29027 20.4306 1.93029 21.0697C2.56939 21.7088 3.21034 22.1017 3.96741 22.3962C4.69939 22.6805 5.53449 22.8746 6.7588 22.9303C7.9859 22.9861 8.37698 23 11.5 23C14.6239 23 15.015 22.987 16.2412 22.9303C17.4655 22.8746 18.3015 22.6805 19.0326 22.3962C19.7887 22.1017 20.4297 21.7088 21.0697 21.0697C21.7088 20.4306 22.1017 19.7887 22.3962 19.0326C22.6805 18.3015 22.8755 17.4655 22.9303 16.2412C22.9861 15.0141 22.9991 14.623 22.9991 11.5C22.9991 8.37698 22.9861 7.98498 22.9303 6.7588C22.8746 5.53449 22.6805 4.69847 22.3962 3.96741C22.1017 3.21127 21.7088 2.57032 21.0697 1.93029C20.4306 1.2912 19.7887 0.897334 19.0335 0.603796C18.3015 0.319548 17.4655 0.124475 16.2421 0.0696688C15.016 0.0139338 14.6239 0 11.5009 0C8.37698 0 7.9859 0.0130048 6.7588 0.0696688Z" fill="black"/>
</g>
<defs>
<clipPath id="clip0_49_7584">
<rect width="23" height="23" fill="white"/>
</clipPath>
</defs>
</svg>
