<svg width="23" height="23" viewBox="0 0 23 23" fill="none" xmlns="http://www.w3.org/2000/svg">
<g clip-path="url(#clip0_49_7591)">
<path d="M4.50969 0.00585938C2.0322 0.00585938 0.0045166 2.03349 0.0045166 4.51103V18.4914C0.0045166 20.9689 2.03215 22.9958 4.50969 22.9958H18.49C20.9675 22.9958 22.9945 20.9689 22.9945 18.4914V4.51103C22.9945 2.03354 20.9675 0.00585938 18.49 0.00585938H4.50969ZM5.64281 3.79966C6.83071 3.79966 7.56241 4.5795 7.58499 5.60459C7.58499 6.60704 6.83066 7.4088 5.61983 7.4088H5.59754C4.43225 7.4088 3.67907 6.60709 3.67907 5.60459C3.67907 4.57952 4.45504 3.79966 5.64278 3.79966H5.64281ZM15.8796 8.59079C18.1642 8.59079 19.8768 10.084 19.8768 13.2928V19.2831H16.4049V13.6944C16.4049 12.2901 15.9024 11.3319 14.6459 11.3319C13.6868 11.3319 13.115 11.9777 12.864 12.6016C12.7723 12.8248 12.7498 13.1365 12.7498 13.4487V19.2831H9.27784C9.27784 19.2831 9.3234 9.81605 9.27784 8.83579H12.7505V10.3152C13.2119 9.60339 14.0371 8.59077 15.8796 8.59077V8.59079ZM3.88386 8.83655H7.35578V19.2832H3.88386V8.83655Z" fill="black"/>
</g>
<defs>
<clipPath id="clip0_49_7591">
<rect width="23" height="23" fill="white"/>
</clipPath>
</defs>
</svg>
