<svg width="29" height="28" viewBox="0 0 29 28" fill="none" xmlns="http://www.w3.org/2000/svg">
<path id="Profile" fill-rule="evenodd" clip-rule="evenodd" d="M14.5007 14C11.2861 14 8.67324 11.5781 8.67324 8.59997C8.67324 5.62187 11.2861 3.19998 14.5007 3.19998C17.7153 3.19998 20.3281 5.62187 20.3281 8.59997C20.3281 11.5781 17.7153 14 14.5007 14ZM19.9758 14.9085C21.1738 14.0203 22.0977 12.8524 22.6535 11.5238C23.2092 10.1951 23.3769 8.75303 23.1396 7.3444C22.5639 3.80335 19.3856 0.969768 15.5475 0.556669C10.2523 -0.0143808 5.76024 3.80613 5.76024 8.59997C5.76024 11.1515 7.03622 13.4248 9.02558 14.9085C4.13628 16.6108 0.566445 20.6082 0.00675626 26.0028C-0.0128126 26.192 0.010242 26.383 0.074436 26.5634C0.13863 26.7439 0.242557 26.9098 0.37957 27.0507C0.516584 27.1916 0.683668 27.3043 0.870143 27.3816C1.05662 27.459 1.25839 27.4993 1.46253 27.5C1.82038 27.5026 2.16639 27.3809 2.43274 27.1583C2.69909 26.9358 2.86658 26.6286 2.90235 26.2971C3.48669 20.2721 8.46444 16.7 14.5007 16.7C20.5369 16.7 25.5146 20.2721 26.099 26.2971C26.1348 26.6286 26.3022 26.9358 26.5686 27.1583C26.835 27.3809 27.181 27.5026 27.5388 27.5C28.403 27.5 29.0758 26.8006 28.9931 26.0028C28.4349 20.6082 24.8651 16.6108 19.9743 14.9085" fill="#364F2A"/>
</svg>
