<svg width="30" height="30" viewBox="0 0 30 30" fill="none" xmlns="http://www.w3.org/2000/svg">
<path d="M15 8.90625C11.6484 8.90625 8.90625 11.6484 8.90625 15C8.90625 18.3516 11.6484 21.0938 15 21.0938C18.3516 21.0938 21.0938 18.3516 21.0938 15C21.0938 11.6484 18.3516 8.90625 15 8.90625ZM15 2.8125C8.29693 2.8125 2.8125 8.29693 2.8125 15C2.8125 21.7031 8.29693 27.1875 15 27.1875C21.7031 27.1875 27.1875 21.7031 27.1875 15C27.1875 8.29693 21.7031 2.8125 15 2.8125ZM15 24.75C9.63762 24.75 5.25 20.3623 5.25 15C5.25 9.63768 9.63762 5.25 15 5.25C20.3624 5.25 24.75 9.63762 24.75 15C24.75 20.3624 20.3624 24.75 15 24.75Z" fill="black"/>
</svg>
