<svg width="18" height="18" viewBox="0 0 18 18" fill="none" xmlns="http://www.w3.org/2000/svg">
<g id="Search icon">
<g id="search">
<path d="M6.4375 0.15332C7.98861 -0.155142 9.59649 0.00326749 11.0576 0.608398C12.519 1.2137 13.7687 2.23952 14.6475 3.55469C15.526 4.86966 15.995 6.41564 15.9951 7.99707C15.9973 9.77301 15.4021 11.4985 14.3057 12.8955L17.7041 16.2852C17.7978 16.3781 17.8721 16.4886 17.9229 16.6104C17.9735 16.732 17.9999 16.8624 18 16.9941C18 17.1261 17.9736 17.2571 17.9229 17.3789C17.8721 17.5007 17.7978 17.6112 17.7041 17.7041C17.6112 17.7978 17.5007 17.8721 17.3789 17.9229C17.2571 17.9736 17.1261 18 16.9941 18C16.8624 17.9999 16.732 17.9735 16.6104 17.9229C16.4886 17.8721 16.3781 17.7978 16.2852 17.7041L12.8955 14.3057C11.4985 15.4021 9.77301 15.9973 7.99707 15.9951C6.41564 15.995 4.86966 15.526 3.55469 14.6475C2.23952 13.7687 1.2137 12.519 0.608398 11.0576C0.00326749 9.59649 -0.155142 7.98861 0.15332 6.4375C0.461903 4.88615 1.22431 3.46123 2.34277 2.34277C3.46123 1.22431 4.88615 0.461903 6.4375 0.15332ZM9.16797 2.11426C8.00447 1.88282 6.79814 2.00208 5.70215 2.45605C4.60615 2.91003 3.66884 3.67866 3.00977 4.66504C2.35083 5.65128 1.99909 6.81096 1.99902 7.99707C1.99902 9.58769 2.63123 11.1135 3.75586 12.2383C4.88063 13.3631 6.40641 13.995 7.99707 13.9951C9.18338 13.9951 10.3437 13.6435 11.3301 12.9844C12.3163 12.3253 13.0851 11.3888 13.5391 10.293C13.993 9.19697 14.1113 7.99066 13.8799 6.82715C13.6484 5.66371 13.0771 4.59466 12.2383 3.75586C11.3996 2.91728 10.3312 2.3457 9.16797 2.11426Z" fill="#364F2A"/>
<path d="M6.4375 0.15332C7.98861 -0.155142 9.59649 0.00326749 11.0576 0.608398C12.519 1.2137 13.7687 2.23952 14.6475 3.55469C15.526 4.86966 15.995 6.41564 15.9951 7.99707C15.9973 9.77301 15.4021 11.4985 14.3057 12.8955L17.7041 16.2852C17.7978 16.3781 17.8721 16.4886 17.9229 16.6104C17.9735 16.732 17.9999 16.8624 18 16.9941C18 17.1261 17.9736 17.2571 17.9229 17.3789C17.8721 17.5007 17.7978 17.6112 17.7041 17.7041C17.6112 17.7978 17.5007 17.8721 17.3789 17.9229C17.2571 17.9736 17.1261 18 16.9941 18C16.8624 17.9999 16.732 17.9735 16.6104 17.9229C16.4886 17.8721 16.3781 17.7978 16.2852 17.7041L12.8955 14.3057C11.4985 15.4021 9.77301 15.9973 7.99707 15.9951C6.41564 15.995 4.86966 15.526 3.55469 14.6475C2.23952 13.7687 1.2137 12.519 0.608398 11.0576C0.00326749 9.59649 -0.155142 7.98861 0.15332 6.4375C0.461903 4.88615 1.22431 3.46123 2.34277 2.34277C3.46123 1.22431 4.88615 0.461903 6.4375 0.15332ZM9.16797 2.11426C8.00447 1.88282 6.79814 2.00208 5.70215 2.45605C4.60615 2.91003 3.66884 3.67866 3.00977 4.66504C2.35083 5.65128 1.99909 6.81096 1.99902 7.99707C1.99902 9.58769 2.63123 11.1135 3.75586 12.2383C4.88063 13.3631 6.40641 13.995 7.99707 13.9951C9.18338 13.9951 10.3437 13.6435 11.3301 12.9844C12.3163 12.3253 13.0851 11.3888 13.5391 10.293C13.993 9.19697 14.1113 7.99066 13.8799 6.82715C13.6484 5.66371 13.0771 4.59466 12.2383 3.75586C11.3996 2.91728 10.3312 2.3457 9.16797 2.11426Z" stroke="black"/>
</g>
</g>
</svg>
