<svg width="29" height="28" viewBox="0 0 29 28" fill="none" xmlns="http://www.w3.org/2000/svg">
<path id="Wishlist" d="M26.3561 3.36029C24.8187 1.74253 22.7807 0.755136 20.6102 0.576477C18.4398 0.397818 16.28 1.03967 14.5211 2.38609C12.6757 0.945557 10.3788 0.292348 8.09293 0.558009C5.80705 0.82367 3.70197 1.98847 2.20161 3.81784C0.701255 5.64721 -0.082937 8.00526 0.00695511 10.4172C0.0968472 12.829 1.05415 15.1156 2.68607 16.8164L11.6929 26.2844C12.4471 27.0634 13.4629 27.5 14.5211 27.5C15.5793 27.5 16.5951 27.0634 17.3493 26.2844L26.3561 16.8164C28.0495 15.0282 29 12.6095 29 10.0883C29 7.56719 28.0495 5.14845 26.3561 3.36029ZM24.3111 14.7158L15.3043 24.1685C15.2018 24.2771 15.0798 24.3634 14.9454 24.4222C14.8109 24.481 14.6667 24.5113 14.5211 24.5113C14.3754 24.5113 14.2312 24.481 14.0968 24.4222C13.9624 24.3634 13.8404 24.2771 13.7379 24.1685L4.73109 14.6701C3.59365 13.4498 2.95673 11.8106 2.95673 10.1036C2.95673 8.39649 3.59365 6.75728 4.73109 5.53701C5.89016 4.33599 7.4534 3.66255 9.0822 3.66255C10.711 3.66255 12.2742 4.33599 13.4333 5.53701C13.5681 5.67968 13.7286 5.79293 13.9053 5.87021C14.082 5.94748 14.2716 5.98727 14.4631 5.98727C14.6545 5.98727 14.8441 5.94748 15.0208 5.87021C15.1976 5.79293 15.358 5.67968 15.4928 5.53701C16.6519 4.33599 18.2151 3.66255 19.8439 3.66255C21.4727 3.66255 23.036 4.33599 24.195 5.53701C25.3481 6.74129 26.006 8.37161 26.0276 10.0787C26.0493 11.7858 25.4331 13.434 24.3111 14.6701V14.7158Z" fill="#364F2A"/>
</svg>
